# Blender v2.69 (sub 0) OBJ File: 'IronBall.blend'
# www.blender.org
o Sphere.002_Sphere.003
v 0.096477 0.389494 -0.386130
v -0.000138 0.484981 -0.280336
v 0.082653 0.485019 -0.272183
v 0.096588 0.426072 -0.341969
v 0.071095 0.516957 -0.214221
v -0.000138 0.520775 -0.214112
v 0.096771 0.485039 -0.267900
v 0.096678 0.246169 -0.212792
v 0.096211 0.273302 -0.480612
v -0.000139 0.389450 -0.395645
v 0.096880 0.498414 -0.214167
v 0.096892 0.512913 -0.214246
v -0.082929 0.485019 -0.272181
v -0.071319 0.517099 -0.213963
v -0.000140 0.273258 -0.490101
v 0.096600 0.149135 -0.212263
v 0.096449 0.149135 -0.294623
v -0.105512 0.389498 -0.385265
v -0.154508 0.485120 -0.250467
v -0.121325 0.509353 -0.213829
v 0.095990 0.149135 -0.546262
v -0.000141 0.149135 -0.555706
v -0.124045 0.273315 -0.477896
v 0.043752 0.149135 -0.212166
v -0.154503 0.406795 -0.213210
v -0.154544 0.356377 -0.212935
v -0.154804 0.389567 -0.370312
v -0.148303 0.505174 -0.213757
v -0.154459 0.496507 -0.228579
v -0.136964 0.149135 -0.542262
v -0.155078 0.273359 -0.468482
v -0.155098 0.149135 -0.424347
v -0.155056 0.149135 -0.401195
v -0.154710 0.149135 -0.211805
v -0.155275 0.149135 -0.521251
v -0.155203 0.149135 -0.481420
v -0.155157 0.149135 -0.456511
v -0.154426 0.503629 -0.213738
v -0.155304 0.149135 -0.536712
vn 0.062355 0.768556 -0.636737
vn 0.062354 0.768556 -0.636737
vn 0.075908 0.628974 -0.773711
vn 0.086528 0.465541 -0.880786
vn 0.046375 0.878775 -0.474977
vn 0.184683 0.768668 -0.612406
vn 0.137351 0.878859 -0.456882
vn -0.223043 0.879024 -0.421388
vn -0.137361 0.878857 -0.456883
vn -0.137358 0.878859 -0.456880
vn -0.184691 0.768669 -0.612403
vn -0.224836 0.629111 -0.744088
vn -0.256289 0.465697 -0.847019
vn -0.086546 0.465540 -0.880785
vn -0.046384 0.878775 -0.474977
vn -0.062368 0.768555 -0.636736
vn -0.075924 0.628974 -0.773710
vn -0.999998 0.000813 0.001826
vn -0.999998 0.000813 0.001825
vn -0.999998 0.000812 0.001828
vn -0.999998 0.000814 0.001825
vn -0.999998 0.000813 0.001824
vn 0.999998 -0.000813 -0.001826
vn 0.999998 -0.000812 -0.001827
vn 0.999998 -0.000812 -0.001826
vn 0.001821 0.005451 0.999983
vn 0.001820 0.005450 0.999983
vn 0.001821 0.005450 0.999983
vn 0.001800 0.005452 0.999984
vn 0.000000 -1.000000 -0.000000
vn -0.000001 -1.000000 -0.000000
vn 0.000000 -1.000000 0.000001
vn -0.000001 -1.000000 0.000001
vn 0.062354 0.768555 -0.636738
vn 0.075908 0.628974 -0.773712
vn 0.046374 0.878775 -0.474979
vn 0.137350 0.878859 -0.456882
vn -0.137362 0.878860 -0.456876
vn -0.137354 0.878856 -0.456887
vn -0.184692 0.768668 -0.612403
vn -0.224833 0.629113 -0.744088
vn -0.256292 0.465696 -0.847019
vn -0.086547 0.465541 -0.880785
vn -0.046385 0.878776 -0.474975
vn -0.062368 0.768556 -0.636736
vn -0.999998 0.000811 0.001828
vn -0.999998 0.000808 0.001834
vn -0.999998 0.000814 0.001824
vn 0.999998 -0.000815 -0.001824
vn 0.999998 -0.000813 -0.001827
vn 0.001824 0.005450 0.999983
vn 0.000002 -1.000000 0.000001
s off
f 1//1 2//1 4//1
f 1//2 10//2 2//2
f 10//3 1//3 15//3
f 15//4 9//4 22//4
f 5//5 3//5 6//5
f 4//6 3//6 7//6
f 12//7 7//7 5//7
f 28//8 29//8 38//8
f 19//9 29//9 20//9
f 13//10 19//10 14//10
f 13//11 18//11 19//11
f 27//12 18//12 23//12
f 31//13 23//13 30//13
f 23//14 15//14 30//14
f 2//15 13//15 6//15
f 13//16 2//16 10//16
f 18//17 10//17 15//17
f 26//18 25//18 33//18
f 34//18 26//18 33//18
f 32//18 25//18 29//18
f 25//19 38//19 29//19
f 37//20 29//20 36//20
f 19//18 27//18 36//18
f 31//21 35//21 36//21
f 35//22 31//22 39//22
f 8//23 4//23 11//23
f 11//24 4//24 12//24
f 9//25 1//25 8//25
f 17//23 9//23 16//23
f 21//25 9//25 17//25
f 14//26 20//26 8//26
f 11//26 6//26 8//26
f 11//27 12//27 5//27
f 8//26 26//26 16//26
f 8//26 25//26 26//26
f 24//28 26//28 34//28
f 28//29 38//29 25//29
f 32//30 37//30 17//30
f 36//31 35//31 30//31
f 17//30 16//30 32//30
f 22//30 21//30 17//30
f 35//32 39//32 30//32
f 24//33 33//33 32//33
f 24//30 34//30 33//30
f 2//34 3//34 4//34
f 1//35 9//35 15//35
f 9//4 21//4 22//4
f 3//36 2//36 6//36
f 7//37 3//37 5//37
f 29//38 28//38 20//38
f 19//39 20//39 14//39
f 18//40 27//40 19//40
f 31//41 27//41 23//41
f 39//42 31//42 30//42
f 15//43 22//43 30//43
f 13//44 14//44 6//44
f 18//45 13//45 10//45
f 23//17 18//17 15//17
f 25//46 32//46 33//46
f 37//18 32//18 29//18
f 29//47 19//47 36//47
f 27//48 31//48 36//48
f 4//49 7//49 12//49
f 1//50 4//50 8//50
f 9//23 8//23 16//23
f 20//26 25//26 8//26
f 6//27 14//27 8//27
f 6//26 11//26 5//26
f 26//26 24//26 16//26
f 20//51 28//51 25//51
f 37//30 30//30 17//30
f 37//52 36//52 30//52
f 16//30 24//30 32//30
f 30//30 22//30 17//30
o Sphere.003_Sphere.004
v 0.100853 0.511255 0.216875
v 0.073758 0.515455 0.216942
v 0.085311 0.483516 0.274859
v 0.100928 0.483540 0.270122
v 0.100841 0.496041 0.216811
v 0.101028 0.417009 0.353543
v 0.002520 0.483476 0.283014
v 0.002519 0.519138 0.217087
v 0.100717 0.341613 0.216167
v 0.101018 0.146479 0.465391
v 0.100864 0.146479 0.380990
v -0.068771 0.515313 0.217200
v -0.080271 0.483516 0.274861
v 0.101070 0.387955 0.388584
v 0.100681 0.297004 0.215981
v 0.100824 0.146479 0.359586
v 0.101170 0.146479 0.548190
v -0.118123 0.507569 0.217258
v -0.150413 0.483622 0.253584
v -0.102852 0.387958 0.387914
v 0.002521 0.387906 0.398291
v 0.100560 0.146479 0.215353
v -0.002974 0.146479 0.215542
v -0.037995 0.146479 0.215605
v 0.101150 0.271732 0.482994
v 0.101172 0.146479 0.549141
v -0.145024 0.146479 0.215800
v -0.145997 0.503195 0.217290
v -0.150449 0.496924 0.228007
v -0.150269 0.388029 0.373531
v -0.121384 0.271744 0.480506
v 0.002522 0.271683 0.492708
v 0.002523 0.146479 0.558832
v -0.150465 0.501765 0.217293
v -0.150750 0.146479 0.215811
v -0.150465 0.502060 0.217294
v -0.150707 0.146479 0.239369
v -0.150690 0.146479 0.248560
v -0.150256 0.146479 0.485426
v -0.150183 0.146479 0.525011
v -0.150181 0.271788 0.471771
v -0.134412 0.146479 0.545382
v -0.150154 0.146479 0.540620
vn 0.137358 0.878708 0.457170
vn 0.184696 0.768465 0.612657
vn 0.086544 0.465249 0.880939
vn 0.046382 0.878618 0.475267
vn 0.062366 0.768345 0.636991
vn 0.062368 0.768345 0.636990
vn 0.075924 0.628717 0.773919
vn -0.075910 0.628717 0.773920
vn -0.086528 0.465250 0.880940
vn -0.046375 0.878618 0.475268
vn -0.062356 0.768345 0.636991
vn -0.184681 0.768465 0.612661
vn -0.224822 0.628866 0.744300
vn -0.256280 0.465417 0.847176
vn -0.137353 0.878709 0.457171
vn -0.137348 0.878708 0.457173
vn -0.223034 0.878883 0.421688
vn -0.999998 0.000795 0.001833
vn -0.999998 0.000795 0.001836
vn -0.999998 0.000820 0.001837
vn -0.999998 0.000795 0.001834
vn -0.999998 0.000794 0.001832
vn -0.999998 0.000796 0.001835
vn 0.999998 -0.000795 -0.001834
vn 0.999998 -0.000794 -0.001834
vn 0.999998 -0.000796 -0.001836
vn 0.999998 -0.000805 -0.001841
vn -0.001820 0.004173 -0.999990
vn -0.001821 0.004172 -0.999990
vn -0.001784 0.004047 -0.999990
vn -0.001819 0.004173 -0.999990
vn -0.001819 0.004171 -0.999990
vn -0.001824 0.004170 -0.999990
vn -0.001820 0.004172 -0.999990
vn 0.000000 -1.000000 0.000000
vn -0.000001 -1.000000 0.000000
vn -0.000000 -1.000000 0.000001
vn 0.000002 -1.000000 0.000028
vn 0.000003 -1.000000 -0.000000
vn 0.000002 -1.000000 -0.000000
vn 0.137362 0.878709 0.457168
vn 0.086542 0.465251 0.880938
vn 0.046384 0.878619 0.475266
vn 0.062367 0.768345 0.636990
vn 0.075920 0.628719 0.773918
vn -0.075907 0.628719 0.773919
vn -0.086527 0.465249 0.880941
vn -0.046374 0.878618 0.475268
vn -0.062355 0.768345 0.636991
vn -0.184680 0.768466 0.612661
vn -0.224827 0.628865 0.744300
vn -0.256281 0.465417 0.847176
vn -0.137354 0.878709 0.457170
vn -0.137349 0.878708 0.457173
vn -0.999998 0.000795 0.001835
vn -0.999998 0.000794 0.001833
vn 0.999998 -0.000798 -0.001836
vn 0.999998 -0.000795 -0.001835
vn -0.001821 0.004183 -0.999990
vn -0.001823 0.004172 -0.999990
vn -0.001814 0.004172 -0.999990
vn -0.001822 0.004173 -0.999990
s off
f 40//53 41//53 43//53
f 43//54 42//54 45//54
f 65//55 64//55 72//55
f 46//56 42//56 47//56
f 42//57 46//57 45//57
f 46//58 60//58 53//58
f 60//59 71//59 53//59
f 71//60 60//60 59//60
f 72//61 71//61 81//61
f 51//62 52//62 47//62
f 52//63 59//63 60//63
f 69//64 59//64 58//64
f 70//65 59//65 69//65
f 81//66 70//66 80//66
f 67//67 68//67 57//67
f 57//68 58//68 51//68
f 75//69 68//69 67//69
f 68//70 73//70 76//70
f 58//71 68//71 77//71
f 73//72 68//72 75//72
f 78//73 58//73 77//73
f 80//74 69//74 78//74
f 78//74 79//74 80//74
f 82//75 80//75 79//75
f 61//76 54//76 55//76
f 54//76 48//76 55//76
f 50//76 48//76 49//76
f 48//76 44//76 45//76
f 44//77 40//77 45//77
f 49//78 45//78 53//78
f 56//79 53//79 65//79
f 66//80 57//80 63//80
f 47//81 48//81 51//81
f 73//82 75//82 57//82
f 47//81 41//81 48//81
f 73//83 57//83 74//83
f 48//84 54//84 62//84
f 41//85 40//85 44//85
f 62//86 54//86 61//86
f 49//87 72//87 63//87
f 63//88 55//88 50//88
f 81//89 79//89 72//89
f 76//87 66//87 63//87
f 49//87 56//87 72//87
f 78//87 77//87 63//87
f 56//90 65//90 72//90
f 63//87 62//87 55//87
f 76//91 74//91 66//91
f 81//92 82//92 79//92
f 62//87 61//87 55//87
f 41//93 42//93 43//93
f 64//94 71//94 72//94
f 42//95 41//95 47//95
f 46//96 53//96 45//96
f 71//97 64//97 53//97
f 70//98 71//98 59//98
f 71//99 70//99 81//99
f 52//100 46//100 47//100
f 46//101 52//101 60//101
f 59//102 52//102 58//102
f 80//103 70//103 69//103
f 82//104 81//104 80//104
f 68//105 58//105 57//105
f 58//106 52//106 51//106
f 73//73 74//73 76//73
f 68//107 76//107 77//107
f 69//108 58//108 78//108
f 48//76 50//76 55//76
f 48//76 45//76 49//76
f 40//109 43//109 45//109
f 56//76 49//76 53//76
f 53//110 64//110 65//110
f 57//81 48//81 63//81
f 48//81 57//81 51//81
f 75//111 67//111 57//111
f 41//112 44//112 48//112
f 57//113 66//113 74//113
f 63//114 48//114 62//114
f 72//87 78//87 63//87
f 49//87 63//87 50//87
f 79//87 78//87 72//87
f 77//89 76//89 63//89
